<?xml version="1.0" encoding="UTF-8" standalone="no"?>
<!DOCTYPE svg PUBLIC "-//W3C//DTD SVG 1.0//EN" "http://www.w3.org/TR/2001/PR-SVG-20010719/DTD/svg10.dtd">
<svg width="29cm" height="12cm" viewBox="118 171 567 230" xmlns="http://www.w3.org/2000/svg" xmlns:xlink="http://www.w3.org/1999/xlink">
  <g>
    <rect style="fill: #afafff" x="200" y="260" width="100" height="40"/>
    <rect style="fill: none; fill-opacity:0; stroke-width: 2; stroke: #000000" x="200" y="260" width="100" height="40"/>
    <text font-size="12.7998" style="fill: #000000;text-anchor:middle;font-family:sans-serif;font-style:normal;font-weight:normal" x="250" y="275.9">
      <tspan x="250" y="275.9">Dedicate</tspan>
      <tspan x="250" y="291.9">Web Server</tspan>
    </text>
  </g>
  <g>
    <rect style="fill: #90ee90" x="340" y="260" width="101.4" height="40"/>
    <rect style="fill: none; fill-opacity:0; stroke-width: 2; stroke: #000000" x="340" y="260" width="101.4" height="40"/>
    <text font-size="12.7998" style="fill: #000000;text-anchor:middle;font-family:sans-serif;font-style:normal;font-weight:normal" x="390.7" y="283.9">
      <tspan x="390.7" y="283.9">Web Service</tspan>
    </text>
  </g>
  <g>
    <rect style="fill: #90ee90" x="480" y="200" width="100" height="40"/>
    <rect style="fill: none; fill-opacity:0; stroke-width: 2; stroke: #000000" x="480" y="200" width="100" height="40"/>
    <text font-size="12.7998" style="fill: #000000;text-anchor:middle;font-family:sans-serif;font-style:normal;font-weight:normal" x="530" y="223.9">
      <tspan x="530" y="223.9">Data Service</tspan>
    </text>
  </g>
  <g>
    <line style="fill: none; fill-opacity:0; stroke-width: 2; stroke: #000000" x1="181.918" y1="280.639" x2="193.268" y2="280.238"/>
    <polygon style="fill: #000000" points="197.765,280.079 191.875,283.289 193.268,280.238 191.663,277.293 "/>
    <polygon style="fill: none; fill-opacity:0; stroke-width: 2; stroke: #000000" points="197.765,280.079 191.875,283.289 193.268,280.238 191.663,277.293 "/>
  </g>
  <g>
    <line style="fill: none; fill-opacity:0; stroke-width: 2; stroke: #000000" x1="300" y1="280" x2="333.264" y2="280"/>
    <polygon style="fill: #000000" points="337.764,280 331.764,283 333.264,280 331.764,277 "/>
    <polygon style="fill: none; fill-opacity:0; stroke-width: 2; stroke: #000000" points="337.764,280 331.764,283 333.264,280 331.764,277 "/>
  </g>
  <g>
    <line style="fill: none; fill-opacity:0; stroke-width: 2; stroke: #000000" x1="441.4" y1="270" x2="475.884" y2="225.332"/>
    <polygon style="fill: #000000" points="478.634,221.77 477.342,228.353 475.884,225.332 472.592,224.686 "/>
    <polygon style="fill: none; fill-opacity:0; stroke-width: 2; stroke: #000000" points="478.634,221.77 477.342,228.353 475.884,225.332 472.592,224.686 "/>
  </g>
  <g>
    <ellipse style="fill: #ffffff" cx="150.959" cy="280.639" rx="30.9588" ry="20.6392"/>
    <ellipse style="fill: none; fill-opacity:0; stroke-width: 2; stroke: #000000" cx="150.959" cy="280.639" rx="30.9588" ry="20.6392"/>
    <text font-size="12.7998" style="fill: #000000;text-anchor:middle;font-family:sans-serif;font-style:normal;font-weight:normal" x="150.959" y="284.539">
      <tspan x="150.959" y="284.539">Req</tspan>
    </text>
  </g>
  <text font-size="12.8" style="fill: #000000;text-anchor:middle;font-family:sans-serif;font-style:normal;font-weight:700" x="460" y="184.238">
    <tspan x="460" y="184.238">Node.js Services We Maintain</tspan>
  </text>
  <text font-size="12.8" style="fill: #000000;text-anchor:middle;font-family:sans-serif;font-style:normal;font-weight:700" x="250" y="184.425">
    <tspan x="250" y="184.425">Web Server</tspan>
  </text>
  <g>
    <rect style="fill: #90ee90" x="480" y="260" width="100" height="40"/>
    <rect style="fill: none; fill-opacity:0; stroke-width: 2; stroke: #000000" x="480" y="260" width="100" height="40"/>
    <text font-size="12.7998" style="fill: #000000;text-anchor:middle;font-family:sans-serif;font-style:normal;font-weight:normal" x="530" y="283.9">
      <tspan x="530" y="283.9">Data Service</tspan>
    </text>
  </g>
  <g>
    <rect style="fill: #90ee90" x="480" y="320" width="100" height="40"/>
    <rect style="fill: none; fill-opacity:0; stroke-width: 2; stroke: #000000" x="480" y="320" width="100" height="40"/>
    <text font-size="12.7998" style="fill: #000000;text-anchor:middle;font-family:sans-serif;font-style:normal;font-weight:normal" x="530" y="343.9">
      <tspan x="530" y="343.9">Data Service</tspan>
    </text>
  </g>
  <g>
    <line style="fill: none; fill-opacity:0; stroke-width: 2; stroke: #000000" x1="441.4" y1="280" x2="473.264" y2="280"/>
    <polygon style="fill: #000000" points="477.764,280 471.764,283 473.264,280 471.764,277 "/>
    <polygon style="fill: none; fill-opacity:0; stroke-width: 2; stroke: #000000" points="477.764,280 471.764,283 473.264,280 471.764,277 "/>
  </g>
  <g>
    <line style="fill: none; fill-opacity:0; stroke-width: 2; stroke: #000000" x1="441.4" y1="290" x2="475.884" y2="334.668"/>
    <polygon style="fill: #000000" points="478.634,338.23 472.592,335.314 475.884,334.668 477.342,331.647 "/>
    <polygon style="fill: none; fill-opacity:0; stroke-width: 2; stroke: #000000" points="478.634,338.23 472.592,335.314 475.884,334.668 477.342,331.647 "/>
  </g>
  <g>
    <path style="fill: #afafff" d="M 620 250.333 C 632,242.583 638,240 650,240 C 662,240 668,242.583 680,250.333 L 680,291.667 C 668,299.417 662,302 650,302 C 638,302 632,299.417 620,291.667 L 620,250.333z"/>
    <path style="fill: none; fill-opacity:0; stroke-width: 2; stroke: #000000" d="M 620 250.333 C 632,242.583 638,240 650,240 C 662,240 668,242.583 680,250.333 L 680,291.667 C 668,299.417 662,302 650,302 C 638,302 632,299.417 620,291.667 L 620,250.333"/>
    <path style="fill: none; fill-opacity:0; stroke-width: 2; stroke: #000000" d="M 620 250.333 C 632,258.083 638,260.667 650,260.667 C 662,260.667 668,258.083 680,250.333"/>
    <text font-size="12.7998" style="fill: #000000;text-anchor:middle;font-family:sans-serif;font-style:normal;font-weight:normal" x="650" y="280.167">
      <tspan x="650" y="280.167">Consul</tspan>
    </text>
  </g>
  <g>
    <line style="fill: none; fill-opacity:0; stroke-width: 2; stroke-dasharray: 4; stroke: #000000" x1="580" y1="220" x2="617.059" y2="262.464"/>
    <polyline style="fill: none; fill-opacity:0; stroke-width: 2; stroke: #000000" points="608.187,259.902 618.53,264.149 615.721,253.327 "/>
  </g>
  <g>
    <line style="fill: none; fill-opacity:0; stroke-width: 2; stroke-dasharray: 4; stroke: #000000" x1="580" y1="280" x2="615.53" y2="278.89"/>
    <polyline style="fill: none; fill-opacity:0; stroke-width: 2; stroke: #000000" points="607.926,284.13 617.765,278.82 607.614,274.135 "/>
  </g>
  <g>
    <line style="fill: none; fill-opacity:0; stroke-width: 2; stroke-dasharray: 4; stroke: #000000" x1="580" y1="340" x2="617.149" y2="295.112"/>
    <polyline style="fill: none; fill-opacity:0; stroke-width: 2; stroke: #000000" points="616.051,304.281 618.574,293.389 608.347,297.905 "/>
  </g>
  <g>
    <line style="fill: none; fill-opacity:0; stroke-width: 2; stroke-dasharray: 4; stroke: #000000" x1="400" y1="400" x2="391.114" y2="304.453"/>
    <polyline style="fill: none; fill-opacity:0; stroke-width: 2; stroke: #000000" points="396.812,311.72 390.907,302.226 386.855,312.646 "/>
  </g>
  <line style="fill: none; fill-opacity:0; stroke-width: 2; stroke-dasharray: 4; stroke: #000000" x1="650" y1="302" x2="640" y2="400"/>
  <line style="fill: none; fill-opacity:0; stroke-width: 2; stroke-dasharray: 4; stroke: #000000" x1="640" y1="400" x2="400" y2="400"/>
  <text font-size="12.8" style="fill: #000000;text-anchor:middle;font-family:sans-serif;font-style:normal;font-weight:700" x="650" y="184.238">
    <tspan x="650" y="184.238">Discovery</tspan>
  </text>
</svg>
