<?xml version="1.0" encoding="UTF-8" standalone="no"?>
<!DOCTYPE svg PUBLIC "-//W3C//DTD SVG 1.0//EN" "http://www.w3.org/TR/2001/PR-SVG-20010719/DTD/svg10.dtd">
<svg width="21cm" height="4cm" viewBox="-5 278 413 65" xmlns="http://www.w3.org/2000/svg" xmlns:xlink="http://www.w3.org/1999/xlink">
  <line style="fill: none; fill-opacity:0; stroke-width: 2; stroke: #ffffff" x1="0" y1="300" x2="400" y2="300"/>
  <line style="fill: none; fill-opacity:0; stroke-width: 2; stroke: #ffffff" x1="0" y1="320" x2="0" y2="280"/>
  <line style="fill: none; fill-opacity:0; stroke-width: 2; stroke: #ffffff" x1="40" y1="320" x2="40" y2="280"/>
  <line style="fill: none; fill-opacity:0; stroke-width: 2; stroke: #ffffff" x1="80" y1="320" x2="80" y2="280"/>
  <line style="fill: none; fill-opacity:0; stroke-width: 2; stroke: #ffffff" x1="120" y1="320" x2="120" y2="280"/>
  <line style="fill: none; fill-opacity:0; stroke-width: 2; stroke: #ffffff" x1="160" y1="320" x2="160" y2="280"/>
  <line style="fill: none; fill-opacity:0; stroke-width: 2; stroke: #ffffff" x1="200" y1="320" x2="200" y2="280"/>
  <line style="fill: none; fill-opacity:0; stroke-width: 2; stroke: #ffffff" x1="240" y1="320" x2="240" y2="280"/>
  <line style="fill: none; fill-opacity:0; stroke-width: 2; stroke: #ffffff" x1="280" y1="320" x2="280" y2="280"/>
  <line style="fill: none; fill-opacity:0; stroke-width: 2; stroke: #ffffff" x1="320" y1="320" x2="320" y2="280"/>
  <line style="fill: none; fill-opacity:0; stroke-width: 2; stroke: #ffffff" x1="360" y1="320" x2="360" y2="280"/>
  <line style="fill: none; fill-opacity:0; stroke-width: 2; stroke: #ffffff" x1="400" y1="320" x2="400" y2="280"/>
  <text font-size="12.7998" style="fill: #ffffff;text-anchor:middle;font-family:sans-serif;font-style:normal;font-weight:normal" x="0" y="340">
    <tspan x="0" y="340">0</tspan>
  </text>
  <text font-size="12.7998" style="fill: #ffffff;text-anchor:middle;font-family:sans-serif;font-style:normal;font-weight:normal" x="40" y="340">
    <tspan x="40" y="340">1</tspan>
  </text>
  <text font-size="12.7998" style="fill: #ffffff;text-anchor:middle;font-family:sans-serif;font-style:normal;font-weight:normal" x="80" y="340">
    <tspan x="80" y="340">2</tspan>
  </text>
  <text font-size="12.7998" style="fill: #ffffff;text-anchor:middle;font-family:sans-serif;font-style:normal;font-weight:normal" x="120" y="340">
    <tspan x="120" y="340">3</tspan>
  </text>
  <text font-size="12.7998" style="fill: #ffffff;text-anchor:middle;font-family:sans-serif;font-style:normal;font-weight:normal" x="160" y="340">
    <tspan x="160" y="340">4</tspan>
  </text>
  <text font-size="12.7998" style="fill: #ffffff;text-anchor:middle;font-family:sans-serif;font-style:normal;font-weight:normal" x="200" y="340">
    <tspan x="200" y="340">5</tspan>
  </text>
  <text font-size="12.7998" style="fill: #ffffff;text-anchor:middle;font-family:sans-serif;font-style:normal;font-weight:normal" x="240" y="340">
    <tspan x="240" y="340">6</tspan>
  </text>
  <text font-size="12.7998" style="fill: #ffffff;text-anchor:middle;font-family:sans-serif;font-style:normal;font-weight:normal" x="280" y="340">
    <tspan x="280" y="340">7</tspan>
  </text>
  <text font-size="12.7998" style="fill: #ffffff;text-anchor:middle;font-family:sans-serif;font-style:normal;font-weight:normal" x="320" y="340">
    <tspan x="320" y="340">8</tspan>
  </text>
  <text font-size="12.7998" style="fill: #ffffff;text-anchor:middle;font-family:sans-serif;font-style:normal;font-weight:normal" x="360" y="340">
    <tspan x="360" y="340">9</tspan>
  </text>
  <text font-size="12.7998" style="fill: #ffffff;text-anchor:middle;font-family:sans-serif;font-style:normal;font-weight:normal" x="400" y="340">
    <tspan x="400" y="340">10</tspan>
  </text>
  <g>
    <rect style="fill: #afafff" x="0" y="280" width="240" height="19"/>
    <rect style="fill: none; fill-opacity:0; stroke-width: 2; stroke: #ffffff" x="0" y="280" width="240" height="19"/>
    <text font-size="12.7998" style="fill: #000000;text-anchor:middle;font-family:sans-serif;font-style:normal;font-weight:normal" x="120" y="293.4">
      <tspan x="120" y="293.4">Task A</tspan>
    </text>
  </g>
  <g>
    <rect style="fill: #ffb0af" x="240" y="280" width="160" height="19"/>
    <rect style="fill: none; fill-opacity:0; stroke-width: 2; stroke: #ffffff" x="240" y="280" width="160" height="19"/>
    <text font-size="12.7998" style="fill: #000000;text-anchor:middle;font-family:sans-serif;font-style:normal;font-weight:normal" x="320" y="293.4">
      <tspan x="320" y="293.4">Task B</tspan>
    </text>
  </g>
</svg>
